<?xml version="1.0" encoding="UTF-8"?>
<!DOCTYPE svg PUBLIC "-//W3C//DTD SVG 1.1//EN" "http://www.w3.org/Graphics/SVG/1.1/DTD/svg11.dtd">
<!-- Creator: CorelDRAW 2020 -->
<svg xmlns="http://www.w3.org/2000/svg" xml:space="preserve" width="211.667mm" height="71.9666mm" version="1.1" style="shape-rendering:geometricPrecision; text-rendering:geometricPrecision; image-rendering:optimizeQuality; fill-rule:evenodd; clip-rule:evenodd"
viewBox="0 0 21166.66 7196.66"
 xmlns:xlink="http://www.w3.org/1999/xlink"
 xmlns:xodm="http://www.corel.com/coreldraw/odm/2003">
 <defs>
  <style type="text/css">
   <![CDATA[
    .fil0 {fill:#0176BC}
    .fil1 {fill:#FF5F0B}
   ]]>
  </style>
 </defs>
 <g id="Layer_x0020_1">
  <metadata id="CorelCorpID_0Corel-Layer"/>
  <g id="_796287704">
   <path class="fil0" d="M1122.91 3262.26l1699.03 0 0 -547.62c0,-271.45 -135.67,-407.23 -407.17,-407.23l-877.59 0c-276.12,0 -414.27,135.78 -414.27,407.23l0 547.62zm16540.82 2113.2l0 -3664.75 1986.82 0c716.16,0 1074.22,358.06 1074.22,1074.11l0 2590.64 -681 0 0 -2660.82c0,-271.45 -135.79,-407.23 -407.26,-407.23l-1291.77 0 0 3068.05 -681.01 0zm-4170.32 -1081.19l0 -1509.45c0,-716.05 358.06,-1074.11 1074.18,-1074.11l982.91 0c716.1,0 1074.16,358.06 1074.16,1074.11l0 1509.45c0,720.77 -358.06,1081.19 -1074.16,1081.19l-953.77 0 -586.92 406.63 -0.38 -508.56c-344,-153.34 -516.02,-479.71 -516.02,-979.26zm681.01 70.18c0,276.16 138.13,414.24 414.27,414.24l947.79 0c271.48,0 407.15,-138.08 407.15,-414.24l0 -1649.81c0,-271.45 -135.67,-407.23 -407.15,-407.23l-947.79 0c-276.14,0 -414.27,135.78 -414.27,407.23l0 1649.81zm-2401.04 1011.01l0 -3664.75 681.03 0 0 3664.75 -681.03 0zm-3119.46 -596.77l1076.39 0c276.16,0 414.24,-140.38 414.24,-421.23 0,-290.2 -112.3,-454.02 -336.96,-491.45l-807.4 -133.37c-594.46,-102.99 -891.65,-430.58 -891.65,-982.89 0,-692.72 360.4,-1039.04 1081.19,-1039.04l921.94 0 222.46 0 322.95 0 0 238.64 0 358.06 -545.41 0 -907.88 0c-280.87,0 -421.25,140.38 -421.25,421.25 0,262.08 116.96,414.22 351,456.34l814.43 133.37c585.02,98.31 877.59,435.32 877.59,1011.01 0,697.42 -362.75,1046.08 -1088.2,1046.08l-1305.9 0 -0.02 -0.02 -322.9 0 0 -238.68 0 -358.07 545.38 0zm-2181.2 596.77l0 -3664.75 681.06 0 0 3664.75 -681.06 0zm-1958.8 -5194.98l681 0c0,1731.64 0,3463.34 0,5194.98l0 0.02 -681 0c0,-1731.66 0,-3463.34 0,-5195zm-1151.4 4956.28l0 238.7 -315.87 0 -86.15 0 -1444.37 0c-716.17,0 -1074.23,-360.42 -1074.23,-1081.19l0 -1509.45c0,-716.05 358.06,-1074.11 1074.23,-1074.11l912.64 0c716.16,0 1074.22,358.06 1074.22,1074.11l0 1010.99 -2380.08 0 0 568.64c0,276.16 138.15,414.24 414.27,414.24l1423.32 0 402.02 0 0 358.07z"/>
   <path class="fil1" d="M15551.5 3381.58l-984.97 0c-63.68,0 -115.37,-51.7 -115.37,-115.37 0,-63.69 51.69,-115.37 115.37,-115.37l984.97 0c63.7,0 115.38,51.68 115.38,115.37 0,63.67 -51.68,115.37 -115.38,115.37zm-486.33 553.73l-498.64 0c-63.68,0 -115.37,-51.69 -115.37,-115.39 0,-63.65 51.69,-115.37 115.37,-115.37l498.64 0c63.67,0 115.37,51.72 115.37,115.37 0,63.7 -51.7,115.39 -115.37,115.39z"/>
   <path class="fil1" d="M3732.08 7016.18l-83.62 0c-103.77,0 -185.62,-83.34 -185.62,-186.78l0 -243.88c0,-90.83 72.73,-163.55 163.55,-163.55l127.76 0c90.84,0 163.54,72.71 163.54,163.55l0 243.88c0,103.44 -81.84,186.78 -185.61,186.78zm2659.32 0l-189.09 0c-121.03,0 -219.29,-98.26 -219.29,-219.3l0 -211.36c0,-91.54 73.42,-163.55 164.71,-163.55l243.67 0 0 94.82 -243.67 0c-32.27,0 -58.28,26 -58.28,58.28l0 232.26c0,61.77 50.87,114.03 112.86,114.03l189.09 0 0 94.82zm3472.48 -594.21l139.37 0 0 94.82 -139.37 0 0 337.01c0,35 26.61,67.56 62.93,67.56l76.44 0 0 94.82 -76.44 0c-92.04,0 -169.36,-68.27 -169.36,-162.38l0 -664.11 106.43 0 0 232.28zm3975.08 361.73l-150.99 -38.32c-75.67,-19.22 -132.84,-79.47 -132.84,-159.86 0,-93.37 77.67,-163.55 169.35,-163.55l239.03 0 0 94.82 -239.03 0c-35.74,0 -62.92,34.44 -62.92,68.73 0,30.68 18.06,58.71 48.36,66.62l155.62 40.65c74.29,19.4 132.81,80.67 132.81,159.84 0,93.37 -77.67,163.55 -169.34,163.55l-262.27 0 0 -94.82 262.27 0c35.72,0 62.91,-34.44 62.91,-68.73 0,-35.45 -19.05,-59.87 -52.96,-68.93zm-9706.23 -313.17c34.79,-31.9 79.2,-48.56 126.61,-48.56l52.26 0c52.33,0 101.27,25.79 133.95,65.94 39.7,-42.15 96.06,-65.94 154.07,-65.94l48.77 0c90.84,0 163.55,72.71 163.55,163.55l0 430.66 -106.43 0 0 -441.11c0,-31.56 -25.32,-58.28 -57.12,-58.28l-48.77 0c-68.29,0 -124.47,56.21 -124.47,124.48l0 374.91 -106.43 0 0 -441.11c0,-31.56 -25.32,-58.28 -57.12,-58.28l-52.26 0c-68.75,0 -121,56.7 -121,124.48l0 374.91 -106.43 0 0 -594.21 68.46 0 32.36 48.56zm905.88 -0.01c36.38,-33.56 79.87,-48.55 130.09,-48.55l47.61 0c91.29,0 164.71,72.01 164.71,163.55l0 430.66 -106.43 0 0 -441.11c0,-32.28 -26,-58.28 -58.28,-58.28l-47.61 0c-68.27,0 -124.48,56.2 -124.48,124.48l0 374.91 -106.43 0 0 -594.21 68.46 0 32.36 48.55zm468.25 545.66l0 -594.21 106.43 0 0 594.21 -106.43 0zm0 -696.82l0 -129.67 106.43 0 0 129.67 -106.43 0zm1081.98 102.61l172.09 0c91.29,0 164.71,72.01 164.71,163.55l0 430.66 -106.43 0 0 -441.11c0,-32.28 -26,-58.28 -58.28,-58.28l-172.09 0 0 499.39 -106.43 0 0 -826.49 106.43 0 0 232.28zm776.21 220.92l0 -68.98c0,-31.73 -25.45,-57.12 -57.12,-57.12l-233.22 0 0 -94.82 233.22 0c90.68,0 163.55,71.39 163.55,162.39l0 431.82 -279.69 0c-92.84,0 -163.53,-72.37 -163.53,-164.71 0,-75.75 60.83,-142.66 132.93,-159.87l203.86 -48.71zm333.08 -172.37c36.39,-33.56 79.88,-48.55 130.1,-48.55l47.61 0c91.29,0 164.71,72.01 164.71,163.55l0 430.66 -106.43 0 0 -441.11c0,-32.28 -26,-58.28 -58.28,-58.28l-47.61 0c-68.27,0 -124.48,56.2 -124.48,124.48l0 374.91 -106.43 0 0 -594.21 68.46 0 32.35 48.55zm569.07 0c36.39,-33.56 79.88,-48.55 130.1,-48.55l47.61 0c91.28,0 164.71,72.01 164.71,163.55l0 430.66 -106.43 0 0 -441.11c0,-32.28 -26,-58.28 -58.28,-58.28l-47.61 0c-68.27,0 -124.48,56.2 -124.48,124.48l0 374.91 -106.44 0 0 -594.21 68.47 0 32.35 48.55zm563.07 325.88l0 0.48c0,68.13 54.88,124.48 123.32,124.48l190.25 0 0 94.82 -190.25 0c-128.15,0 -229.75,-103.06 -229.75,-230.9l0 -199.76c0,-93.37 77.68,-163.55 169.36,-163.55l104.52 0c91.68,0 169.35,70.18 169.35,163.55 0,76.04 -58.79,144.01 -131.75,161.03l-205.05 49.85zm545.84 219.78l-106.43 0 0 -826.49 106.43 0 0 826.49zm812.96 -219.78l0 0.48c0,68.13 54.89,124.48 123.32,124.48l190.25 0 0 94.82 -190.25 0c-128.15,0 -229.75,-103.06 -229.75,-230.9l0 -199.76c0,-93.37 77.68,-163.55 169.36,-163.55l104.53 0c91.68,0 169.35,70.18 169.35,163.55 0,76.04 -58.8,144.01 -131.76,161.03l-205.05 49.85zm545.84 219.78l-106.43 0 0 -826.49 106.43 0 0 826.49zm220.66 -219.78l0 0.48c0,68.13 54.89,124.48 123.32,124.48l190.26 0 0 94.82 -190.26 0c-128.14,0 -229.75,-103.06 -229.75,-230.9l0 -199.76c0,-93.37 77.69,-163.55 169.37,-163.55l104.52 0c91.68,0 169.35,70.18 169.35,163.55 0,76.04 -58.8,144.01 -131.76,161.03l-205.05 49.85zm836.19 219.78l-189.09 0c-121.04,0 -219.3,-98.26 -219.3,-219.3l0 -211.36c0,-91.54 73.42,-163.55 164.71,-163.55l243.68 0 0 94.82 -243.68 0c-32.27,0 -58.28,26 -58.28,58.28l0 232.26c0,61.77 50.87,114.03 112.87,114.03l189.09 0 0 94.82zm325.39 0l-83.62 0c-103.77,0 -185.62,-83.34 -185.62,-186.78l0 -243.88c0,-90.83 72.72,-163.55 163.55,-163.55l127.75 0c90.84,0 163.55,72.71 163.55,163.55l0 243.88c0,103.44 -81.85,186.78 -185.61,186.78zm400.65 -545.65c34.79,-31.9 79.2,-48.56 126.61,-48.56l52.26 0c52.33,0 101.26,25.79 133.95,65.94 39.7,-42.15 96.06,-65.94 154.06,-65.94l48.78 0c90.84,0 163.55,72.71 163.55,163.55l0 430.66 -106.44 0 0 -441.11c0,-31.56 -25.31,-58.28 -57.11,-58.28l-48.78 0c-68.28,0 -124.46,56.21 -124.46,124.48l0 374.91 -106.44 0 0 -441.11c0,-31.56 -25.31,-58.28 -57.11,-58.28l-52.26 0c-68.75,0 -121,56.7 -121,124.48l0 374.91 -106.43 0 0 -594.21 68.46 0 32.36 48.56zm1840.79 545.65l-83.62 0c-103.77,0 -185.61,-83.34 -185.61,-186.78l0 -243.88c0,-90.83 72.72,-163.55 163.54,-163.55l127.76 0c90.84,0 163.55,72.71 163.55,163.55l0 243.88c0,103.44 -81.85,186.78 -185.62,186.78zm406.27 0l-106.43 0 0 -826.49 106.43 0 0 826.49zm468.26 -48.54c-36.39,33.56 -79.87,48.54 -130.09,48.54l-47.61 0c-91.29,0 -164.71,-72 -164.71,-163.55l0 -430.66 106.43 0 0 441.12c0,32.27 26.01,58.27 58.28,58.27l47.61 0c68.28,0 124.48,-56.19 124.48,-124.48l0 -374.91 106.43 0 0 594.21 -68.46 0 -32.36 -48.54zm333.09 -545.67l139.37 0 0 94.82 -139.37 0 0 337.01c0,35 26.61,67.56 62.93,67.56l76.44 0 0 94.82 -76.44 0c-92.05,0 -169.37,-68.27 -169.37,-162.38l0 -664.11 106.44 0 0 232.28zm230.37 594.21l0 -594.21 106.43 0 0 594.21 -106.43 0zm0 -696.82l0 -129.67 106.43 0 0 129.67 -106.43 0zm489.9 696.82l-83.62 0c-103.77,0 -185.62,-83.34 -185.62,-186.78l0 -243.88c0,-90.83 72.72,-163.55 163.55,-163.55l127.75 0c90.84,0 163.55,72.71 163.55,163.55l0 243.88c0,103.44 -81.85,186.78 -185.61,186.78zm400.65 -545.66c36.39,-33.56 79.87,-48.55 130.1,-48.55l47.61 0c91.28,0 164.71,72.01 164.71,163.55l0 430.66 -106.43 0 0 -441.11c0,-32.28 -26.01,-58.28 -58.28,-58.28l-47.61 0c-68.28,0 -124.49,56.2 -124.49,124.48l0 374.91 -106.43 0 0 -594.21 68.46 0 32.36 48.55zm728.86 313.18l-150.99 -38.32c-75.67,-19.22 -132.84,-79.47 -132.84,-159.86 0,-93.37 77.67,-163.55 169.35,-163.55l239.03 0 0 94.82 -239.03 0c-35.74,0 -62.92,34.44 -62.92,68.73 0,30.68 18.06,58.71 48.36,66.62l155.62 40.65c74.29,19.4 132.81,80.67 132.81,159.84 0,93.37 -77.67,163.55 -169.34,163.55l-262.27 0 0 -94.82 262.27 0c35.72,0 62.91,-34.44 62.91,-68.73 0,-35.45 -19.05,-59.87 -52.96,-68.93zm-13767.53 137.66l83.62 0c44.04,0 79.18,-36.61 79.18,-80.34l0 -265.95c0,-32.1 -24.69,-58.28 -57.11,-58.28l-127.76 0c-31.8,0 -57.11,26.73 -57.11,58.28l0 265.95c0,43.73 35.14,80.34 79.18,80.34zm3716.59 0l0 -182.04 -180.84 44.36c-30.86,8.01 -49.52,36.5 -49.52,67.79 0,32.82 20.8,69.89 57.1,69.89l173.26 0zm1465.22 -224.85l181.07 -44.42c32.06,-7.14 49.3,-34.58 49.3,-66.57 0,-34.29 -27.19,-68.73 -62.92,-68.73l-104.52 0c-36.35,0 -62.93,33.86 -62.93,68.73l0 110.99zm1358.8 0l181.07 -44.42c32.06,-7.14 49.3,-34.58 49.3,-66.57 0,-34.29 -27.19,-68.73 -62.91,-68.73l-104.53 0c-36.34,0 -62.93,33.86 -62.93,68.73l0 110.99zm766.5 0l181.08 -44.42c32.06,-7.14 49.3,-34.58 49.3,-66.57 0,-34.29 -27.2,-68.73 -62.92,-68.73l-104.52 0c-36.35,0 -62.94,33.86 -62.94,68.73l0 110.99zm1077.96 224.85l83.62 0c44.04,0 79.18,-36.61 79.18,-80.34l0 -265.95c0,-32.1 -24.69,-58.28 -57.12,-58.28l-127.75 0c-31.8,0 -57.12,26.73 -57.12,58.28l0 265.95c0,43.73 35.15,80.34 79.19,80.34zm2241.44 0l83.62 0c44.04,0 79.19,-36.61 79.19,-80.34l0 -265.95c0,-32.1 -24.7,-58.28 -57.12,-58.28l-127.76 0c-31.8,0 -57.11,26.73 -57.11,58.28l0 265.95c0,43.73 35.14,80.34 79.18,80.34zm1927.89 0l83.62 0c44.04,0 79.18,-36.61 79.18,-80.34l0 -265.95c0,-32.1 -24.69,-58.28 -57.12,-58.28l-127.75 0c-31.8,0 -57.12,26.73 -57.12,58.28l0 265.95c0,43.73 35.15,80.34 79.19,80.34z"/>
  </g>
 </g>
</svg>
