<?xml version="1.0" encoding="utf-8"?>
<!-- Generator: Adobe Illustrator 26.4.0, SVG Export Plug-In . SVG Version: 6.00 Build 0)  -->
<svg version="1.1" id="Layer_1" xmlns="http://www.w3.org/2000/svg" xmlns:xlink="http://www.w3.org/1999/xlink" x="0px" y="0px"
	 viewBox="0 0 167.7 70" style="enable-background:new 0 0 167.7 70;" xml:space="preserve">
<style type="text/css">
	.st0{fill:#211E1F;}
	.st1{fill:#01AE6B;}
	.st2{fill:#1080C3;}
	.st3{fill:#FFFFFF;}
</style>
<path class="st0" d="M8.9,10.2v5.6c0,0.4-0.1,0.7-0.3,0.9C8.4,16.9,8.2,17,7.9,17c-0.3,0-0.5-0.1-0.7-0.3c-0.2-0.2-0.3-0.5-0.3-0.9
	v-5.6c0-0.4,0.1-0.7,0.3-0.9c0.2-0.2,0.4-0.3,0.7-0.3c0.3,0,0.5,0.1,0.7,0.3C8.8,9.6,8.9,9.8,8.9,10.2 M7.9,8.2
	c-0.3,0-0.5-0.1-0.7-0.2C7,7.8,6.9,7.5,6.9,7.2c0-0.3,0.1-0.5,0.3-0.7c0.2-0.2,0.4-0.3,0.7-0.3c0.3,0,0.5,0.1,0.7,0.2
	c0.2,0.2,0.3,0.4,0.3,0.7c0,0.3-0.1,0.5-0.3,0.7C8.4,8.1,8.2,8.2,7.9,8.2"/>
<path class="st0" d="M17.3,13.2v2.6c0,0.4-0.1,0.7-0.3,0.9c-0.2,0.2-0.4,0.3-0.7,0.3c-0.3,0-0.5-0.1-0.7-0.3
	c-0.2-0.2-0.3-0.5-0.3-0.9v-3.1c0-0.5,0-0.9,0-1.1c0-0.3-0.1-0.5-0.3-0.7c-0.1-0.2-0.4-0.3-0.7-0.3c-0.6,0-1.1,0.2-1.3,0.7
	c-0.2,0.4-0.3,1.1-0.3,1.9v2.6c0,0.4-0.1,0.7-0.3,0.9c-0.2,0.2-0.4,0.3-0.7,0.3c-0.3,0-0.5-0.1-0.7-0.3c-0.2-0.2-0.3-0.5-0.3-0.9
	v-5.6c0-0.4,0.1-0.6,0.2-0.8c0.2-0.2,0.4-0.3,0.7-0.3c0.3,0,0.5,0.1,0.7,0.3c0.2,0.2,0.3,0.4,0.3,0.7v0.2c0.3-0.4,0.7-0.7,1.1-0.9
	c0.4-0.2,0.8-0.3,1.3-0.3c0.5,0,0.9,0.1,1.3,0.3c0.4,0.2,0.6,0.5,0.9,0.9c0.3-0.4,0.7-0.7,1.1-0.9c0.4-0.2,0.8-0.3,1.2-0.3
	c0.5,0,1,0.1,1.4,0.3c0.4,0.2,0.7,0.5,0.9,0.9c0.2,0.3,0.3,0.9,0.3,1.7v3.8c0,0.4-0.1,0.7-0.3,0.9c-0.2,0.2-0.4,0.3-0.7,0.3
	c-0.3,0-0.5-0.1-0.7-0.3c-0.2-0.2-0.3-0.5-0.3-0.9v-3.3c0-0.4,0-0.7-0.1-1c0-0.3-0.1-0.5-0.3-0.6c-0.2-0.2-0.4-0.3-0.7-0.3
	c-0.3,0-0.5,0.1-0.7,0.2c-0.2,0.2-0.4,0.4-0.5,0.6C17.4,11.8,17.3,12.3,17.3,13.2"/>
<path class="st0" d="M30,14.4c0,0.5-0.1,1-0.4,1.4c-0.3,0.4-0.6,0.7-1.2,0.9C28,16.9,27.4,17,26.6,17c-0.7,0-1.3-0.1-1.8-0.3
	c-0.5-0.2-0.9-0.5-1.1-0.8c-0.2-0.3-0.4-0.6-0.4-1c0-0.2,0.1-0.4,0.2-0.5c0.2-0.2,0.3-0.2,0.6-0.2c0.2,0,0.4,0,0.5,0.1
	c0.1,0.1,0.2,0.2,0.3,0.4c0.2,0.3,0.4,0.6,0.7,0.8c0.3,0.2,0.7,0.3,1.1,0.3c0.4,0,0.7-0.1,1-0.3c0.2-0.2,0.4-0.4,0.4-0.6
	c0-0.3-0.1-0.6-0.4-0.7c-0.3-0.2-0.7-0.3-1.3-0.4c-0.7-0.2-1.2-0.3-1.6-0.5c-0.4-0.2-0.8-0.4-1-0.7c-0.3-0.3-0.4-0.7-0.4-1.1
	c0-0.4,0.1-0.8,0.3-1.1c0.2-0.3,0.6-0.6,1-0.8c0.5-0.2,1-0.3,1.6-0.3c0.5,0,1,0.1,1.4,0.2c0.4,0.1,0.7,0.2,1,0.4
	c0.3,0.2,0.5,0.4,0.6,0.6c0.1,0.2,0.2,0.4,0.2,0.6c0,0.2-0.1,0.4-0.2,0.5c-0.1,0.1-0.4,0.2-0.6,0.2c-0.2,0-0.4-0.1-0.5-0.2
	c-0.1-0.1-0.3-0.3-0.5-0.5c-0.1-0.2-0.3-0.3-0.5-0.5c-0.2-0.1-0.5-0.2-0.8-0.2c-0.4,0-0.6,0.1-0.9,0.2c-0.2,0.1-0.3,0.3-0.3,0.6
	c0,0.2,0.1,0.4,0.3,0.5c0.2,0.1,0.4,0.2,0.7,0.3c0.3,0.1,0.7,0.2,1.2,0.3c0.6,0.1,1.1,0.3,1.5,0.5c0.4,0.2,0.7,0.4,0.9,0.7
	C29.9,13.8,30,14.1,30,14.4"/>
<path class="st0" d="M6.8,65.9V45.3h8.8c3.9,0,6.7,3.5,6.7,7c0,3.6-2.6,7-6.6,7h-4.2v6.7H6.8z M11.6,55.1h3.9c1.1,0,2.1-1,2.1-2.8
	c0-1.9-1.1-2.8-2.2-2.8h-3.7V55.1z"/>
<path class="st0" d="M22.9,55.6c0-5.5,4.2-10.4,9.9-10.4c5.9,0,9.8,5.3,9.8,10.5c0,5.4-4.2,10.4-9.9,10.4
	C26.9,66.1,22.9,60.9,22.9,55.6 M32.8,61.8c3.3,0,5-3.2,5-6.3c0-3.2-1.8-6.2-5-6.2c-3.3,0-5,3.1-5,6.2
	C27.8,58.8,29.6,61.8,32.8,61.8"/>
<path class="st0" d="M57,51.3c-0.3-0.3-3.1-2-5.5-2c-1.6,0-2.5,0.6-2.5,1.7c0,1.4,1.5,1.8,4.3,2.5c4,1.1,6.5,2.4,6.5,6.2
	c0,4.7-3.8,6.3-7.8,6.3c-3,0-6.4-1-8.8-2.6l2.1-4.2c0.4,0.4,3.6,2.4,6.8,2.4c1.7,0,2.5-0.6,2.5-1.5c0-1.5-2.1-1.9-5-2.8
	c-3.8-1.2-5.6-2.6-5.6-5.7c0-4.4,3.5-6.7,7.6-6.7c2.9,0,5.6,1.2,7.4,2.3L57,51.3z"/>
<path class="st0" d="M74.2,51.3c-0.3-0.3-3.1-2-5.5-2c-1.6,0-2.5,0.6-2.5,1.7c0,1.4,1.5,1.8,4.3,2.5c4,1.1,6.5,2.4,6.5,6.2
	c0,4.7-3.8,6.3-7.8,6.3c-3,0-6.4-1-8.8-2.6l2.1-4.2c0.4,0.4,3.6,2.4,6.8,2.4c1.7,0,2.5-0.6,2.5-1.5c0-1.5-2.1-1.9-5-2.8
	c-3.8-1.2-5.6-2.6-5.6-5.7c0-4.4,3.5-6.7,7.6-6.7c2.9,0,5.6,1.2,7.4,2.3L74.2,51.3z"/>
<rect x="78.9" y="45.3" class="st0" width="4.8" height="20.6"/>
<path class="st0" d="M97,65.9H86.9V45.3h11.5c2.9,0,4.7,2.7,4.7,5.3c0,1.9-1,3.9-3,4.8c2.4,0.7,3.8,2.5,3.8,5.3
	C104,64.2,100.8,65.9,97,65.9 M91.7,49.3v4.3h4.7c1,0,2-0.7,2-2.2c0-1.4-0.8-2.1-1.8-2.1H91.7z M97.2,57.4h-5.5v4.5H97
	c1.2,0,2.2-0.9,2.2-2.2C99.1,58.4,98.3,57.4,97.2,57.4"/>
<polygon class="st0" points="106.1,65.9 106.1,45.3 110.8,45.3 110.8,61.7 120.8,61.7 120.8,65.9 "/>
<polygon class="st0" points="137,61.7 137,65.9 122.5,65.9 122.5,45.3 136.7,45.3 136.7,49.5 127.2,49.5 127.2,53.5 135.4,53.5 
	135.4,57.3 127.2,57.3 127.2,61.7 "/>
<path class="st1" d="M161.2,55.5c0,6.2-5.1,11.3-11.3,11.3c-6.2,0-11.3-5.1-11.3-11.3c0-6.2,5.1-11.3,11.3-11.3
	C156.1,44.2,161.2,49.3,161.2,55.5"/>
<path class="st2" d="M132.2,31.1c0,6.2-5.1,11.3-11.3,11.3c-6.2,0-11.3-5.1-11.3-11.3s5.1-11.3,11.3-11.3
	C127.1,19.8,132.2,24.9,132.2,31.1"/>
<path class="st0" d="M6.9,41.4V20.8h8.7c3.7,0,6.4,3.4,6.4,6.7c0,3.5-2.5,6.7-6.2,6.7h-5.6v7.2H6.9z M10.2,31.4h5.4
	c1.8,0,3.1-1.7,3.1-3.9c0-2.3-1.5-3.8-3.3-3.8h-5.2V31.4z"/>
<polygon class="st0" points="37.8,38.5 37.8,41.4 23.7,41.4 23.7,20.8 37.6,20.8 37.6,23.7 26.9,23.7 26.9,29.5 36.1,29.5 
	36.1,32.2 26.9,32.2 26.9,38.5 "/>
<path class="st0" d="M38.4,31.1c0-5.5,4.2-10.5,9.8-10.5c5.8,0,9.7,5.3,9.7,10.5c0,5.5-4.2,10.4-9.8,10.4
	C42.3,41.6,38.4,36.4,38.4,31.1 M48.2,38.6c4.1,0,6.5-3.8,6.5-7.5c0-3.9-2.6-7.5-6.5-7.5c-4,0-6.5,3.8-6.5,7.5
	C41.7,35,44.2,38.6,48.2,38.6"/>
<path class="st0" d="M60,41.4V20.8h8.7c3.7,0,6.4,3.4,6.4,6.7c0,3.5-2.5,6.7-6.2,6.7h-5.6v7.2H60z M63.3,31.4h5.4
	c1.8,0,3.1-1.7,3.1-3.9c0-2.3-1.5-3.8-3.3-3.8h-5.2V31.4z"/>
<polygon class="st0" points="77.4,41.4 77.4,20.8 80.6,20.8 80.6,38.5 91.7,38.5 91.7,41.4 "/>
<polygon class="st0" points="107.9,38.5 107.9,41.4 93.8,41.4 93.8,20.8 107.7,20.8 107.7,23.7 97,23.7 97,29.5 106.3,29.5 
	106.3,32.2 97,32.2 97,38.5 "/>
<path class="st3" d="M118.8,33.3c0-0.3,0-0.6,0.1-0.9c0-0.3,0.1-0.5,0.2-0.8c0.1-0.3,0.3-0.5,0.5-0.7c0.2-0.2,0.5-0.4,0.8-0.6
	c0.2-0.1,0.4-0.2,0.6-0.4c0.3-0.1,0.5-0.3,0.8-0.5c0.3-0.2,0.5-0.4,0.7-0.7c0.2-0.3,0.3-0.5,0.3-0.8c0-0.4-0.1-0.8-0.4-1
	c-0.3-0.2-0.6-0.4-1-0.4c-0.2,0-0.5,0-0.7,0.1c-0.2,0.1-0.4,0.2-0.5,0.3c-0.2,0.1-0.3,0.3-0.4,0.5c-0.1,0.2-0.2,0.3-0.3,0.4
	l-1.9-1.4c0.3-0.8,0.8-1.4,1.5-1.8c0.7-0.4,1.5-0.7,2.3-0.7c0.5,0,0.9,0.1,1.4,0.2c0.5,0.1,0.9,0.4,1.3,0.7c0.4,0.3,0.7,0.7,0.9,1.2
	c0.2,0.5,0.3,1.1,0.3,1.8c0,0.7-0.1,1.3-0.4,1.8c-0.3,0.5-0.7,0.9-1.3,1.3c-0.3,0.2-0.5,0.3-0.8,0.5c-0.3,0.1-0.5,0.3-0.7,0.4
	c-0.2,0.2-0.4,0.3-0.5,0.5c-0.1,0.2-0.2,0.4-0.2,0.7H118.8z M118.8,35.2h2.4v2.9h-2.4V35.2z"/>
<path class="st3" d="M148.5,48.2h2.7v8.4h-2.7V48.2z M148.5,58.9h2.7v3.2h-2.7V58.9z"/>
</svg>
