<?xml version="1.0" encoding="UTF-8"?>
<svg id="Layer_1" data-name="Layer 1" xmlns="http://www.w3.org/2000/svg" xmlns:xlink="http://www.w3.org/1999/xlink" viewBox="0 0 1000 380.43">
  <defs>
    <style>
      .cls-1 {
        fill: url(#linear-gradient);
      }

      .cls-1, .cls-2, .cls-3, .cls-4, .cls-5 {
        stroke-width: 0px;
      }

      .cls-2 {
        fill: none;
      }

      .cls-3 {
        fill: #1a1a18;
      }

      .cls-6 {
        clip-path: url(#clippath);
      }

      .cls-4 {
        fill: #6f6f6f;
      }

      .cls-5 {
        fill: #3c3b39;
        fill-rule: evenodd;
      }
    </style>
    <clipPath id="clippath">
      <path class="cls-2" d="m220.55,98.04h0s.45-.85.45-.85h0m31.41-65.43c1.11-1.87,2.24-3.66,3.39-5.37,12.25-18.11,26.87-26.39,48.69-11.64,3.05,2.06,3.89,2.05,5.65,2.03,1.42-.01,3.23-.04,6.05.37,4.32.62,8.61,2.36,12.22,4.7,3.81,2.47,6.93,5.66,8.65,8.97l2.12,4.11-4.61.42c-27.8,2.51-29.3,15.01-31.43,32.61-.21,1.75-.43,3.55-.75,5.93-5.57,41.11-41.52,68.94-76.38,95.92-13.74,10.63-27.3,21.13-38.62,32.21-8.31,33.55,1.04,52.93,11.45,74.5,7.44,15.41,15.4,31.9,18.28,55.21l.11.87-.38.81-21.86,47.02-3.15-3.38c-3.21-3.44-6.27-7.19-9.16-11.17-16.72-23.06-28.09-54.72-30.38-85.17-.54-7.22-.58-14.38-.05-21.35-.17-3.41-.28-6.71-.34-9.92l-.73-2.44c-10.67-35.46-12.18-67.37-5.67-95.54,5.85-25.3,18.14-47.53,36.05-66.57-27.69,7.83-63.69,12.04-98.34,5.08-29.96-6.02-58.9-20.35-80.68-47.82l-2.54-3.21,3.77-1.6C45.04,19.88,86.01,7.88,127.56,5.69c40.82-2.15,82.16,5.17,124.85,26.07Zm-31.41,65.43c5.3-9.89,10.08-20.68,14.74-31.19,4.52-10.19,8.93-20.13,13.61-28.82-41.54-20.26-81.76-27.36-121.48-25.27-39.47,2.08-78.49,13.23-117.85,29.56,20.43,24.11,46.97,36.9,74.41,42.42,38.89,7.81,79.61,1.07,107.55-8.83l14.56-5.16-11.43,10.4c-22.09,20.1-37.02,44.35-43.54,72.56-4.97,21.5-5.07,45.34.26,71.42,1.67-18.3,5.94-33.1,12.78-47.01,9.17-18.64,22.83-35.45,40.99-56.92l.07-.08.87-1.03.55-.65.54-.66.54-.67h0s.54-.68.54-.68h0s.53-.69.53-.69l.53-.7h0l.52-.71h0s.52-.71.52-.71h0s.52-.72.52-.72h0s.51-.73.51-.73h0l.51-.74h0s.51-.75.51-.75h0s.5-.75.5-.75h0s.5-.76.5-.76h0s.5-.77.5-.77h0s.49-.77.49-.77h0s.49-.78.49-.78h0s.49-.79.49-.79h0s5.16-9.02,5.16-9.02Zm-10.62,27.16c-19.27,22.8-33.16,40.74-41.71,60.94-5.53,13.06-8.88,27.18-10.07,44.31,4.06-10.7,10.07-20.22,18.28-27.88,1.96-1.82,4.03-3.54,6.22-5.12l3.94-2.86c10.66-9.88,22.85-19.32,35.18-28.86,33.86-26.21,68.78-53.24,74.01-91.83.22-1.64.48-3.76.73-5.83,2.33-19.32,4.03-33.36,31.56-37.42-1.02-.97-2.2-1.9-3.49-2.74-2.89-1.87-6.3-3.26-9.71-3.75-2.44-.35-3.95-.33-5.12-.32-3.08.03-4.56.05-9.19-3.08-17.8-12.03-29.86-5.09-40.04,9.96-3.57,5.28-6.94,11.53-10.24,18.33v.03s-.23.45-.23.45l-.08.17-.15.31-.15.31-.08.17-.22.45-.02.03-.23.49c-2.7,5.69-5.38,11.74-8.11,17.89-5.98,13.48-12.16,27.43-19.45,39.55h0s-.5.82-.5.82h0l-.5.82h0l-.5.81h0c-.34.54-.68,1.08-1.02,1.61h0s-.52.79-.52.79h0s-.52.79-.52.79h0l-.52.78h0s-.53.77-.53.77h0s-.53.77-.53.77h0l-.53.76h0l-.54.75h0s-.54.74-.54.74l-.55.74-.55.73h0l-.56.72h0s-.56.71-.56.71l-.57.7h0s-.57.7-.57.7l-.58.69-.86,1.01-.06.08Zm-17.08,244.96l17.53-37.7c-2.85-21.86-10.47-37.64-17.59-52.39-9.87-20.44-18.82-39.02-13.96-68.69-6.8,7.72-12.34,15.79-15.99,24.43-2.53,7.56-4.09,15.72-4.77,24.21.02.94.05,1.88.11,2.84v.02l-.31.02c-.34,5.95-.26,12.05.2,18.2,2.21,29.33,13.14,59.81,29.21,81.97,1.8,2.48,3.65,4.85,5.57,7.09Z"/>
    </clipPath>
    <linearGradient id="linear-gradient" x1="317.72" y1="353.23" x2="-276.1" y2="-300.27" gradientUnits="userSpaceOnUse">
      <stop offset="0" stop-color="#0e83c1"/>
      <stop offset=".34" stop-color="#e7473d"/>
      <stop offset=".66" stop-color="#f0a51f"/>
      <stop offset="1" stop-color="#55ad47"/>
    </linearGradient>
  </defs>
  <g class="cls-6">
    <rect class="cls-1" width="339.18" height="380.43"/>
  </g>
  <path class="cls-4" d="m745.45,325.36v-11.48h12.89c3.81,0,5.69,2.21,5.69,5.41,0,3.39-1.65,6.07-6.59,6.07h-12Zm-4.99,17.79h4.99v-13.46h12.66c7.06,0,10.92-4.19,10.92-10.49s-3.86-9.65-11.25-9.65h-17.32v33.59Zm-68.97-12.7c0,8.99,4.99,13.55,15.2,13.55s15.2-4.56,15.2-13.55v-20.89h-4.99v21.5c0,6.07-4.05,8.61-10.21,8.61s-10.21-2.54-10.21-8.61v-21.5h-4.99v20.89Zm-41.54-4.09c0,8.89-6.02,13.32-13.69,13.32s-13.69-4.42-13.69-13.32,6.02-13.32,13.69-13.32,13.69,4.42,13.69,13.32Zm-32.37,0c0,8.61,5.18,17.64,18.68,17.64s18.68-9.03,18.68-17.64-5.18-17.64-18.68-17.64-18.68,9.03-18.68,17.64Zm-59.94-1.79v-10.68h14.07c4,0,5.93,2.16,5.93,5.36,0,2.35-1.18,5.32-6.07,5.32h-13.93Zm-4.99,18.59h4.99v-14.26h13.03c4.14,0,6.16,1.84,6.49,7.86.24,4.05.24,5.46,1.04,6.4h5.27c-1.13-1.32-1.32-2.87-1.6-9.13-.19-3.95-1.93-6.73-4.89-7.15v-.09c3.67-1.18,5.65-4.19,5.65-8.28s-2.45-8.94-9.18-8.94h-20.8v33.59Zm-53.96-13.79h11.01c-.52,5.98-5.27,10.3-12.56,10.3s-13.08-3.67-13.08-13.18c0-7.15,3.95-13.46,12.84-13.46,6.35,0,9.83,2.45,11.39,7.1h5.27c-2.12-9.27-9.98-11.43-16.89-11.43-8.7,0-17.6,5.22-17.6,18.21,0,7.39,4.28,17.08,17.74,17.08,7.1,0,10.68-3.06,12.89-5.65l.85,4.8h3.58v-18.12h-15.43v4.33Z"/>
  <path class="cls-5" d="m395.89,222.52h22.59c3.59,0,6.79-.77,9.59-2.3,2.8-1.53,4.97-3.67,6.5-6.39,1.53-2.72,2.3-5.81,2.3-9.3s-.79-6.71-2.38-9.35c-1.59-2.64-3.75-4.68-6.53-6.08-2.77-1.4-5.92-2.09-9.41-2.09h-22.67v35.52Zm65.64,56.37h-24.26l-17.44-37.58c-2.33.1-4.1.16-5.31.16h-18.63v37.42h-21.48v-111.38h45.98c7.56,0,14.24,1.53,20.03,4.62,5.79,3.09,10.28,7.43,13.48,13,3.2,5.58,4.78,12.02,4.78,19.32s-1.61,13.63-4.84,18.89c-3.22,5.26-7.69,9.41-13.4,12.42l21.09,43.13Zm72.61-18.71c6.45,0,12.42-1.64,17.89-4.92,5.47-3.28,9.83-7.74,13.08-13.4,3.25-5.65,4.86-11.89,4.86-18.71s-1.61-13.13-4.86-18.79c-3.25-5.66-7.64-10.12-13.13-13.37-5.5-3.25-11.44-4.86-17.84-4.86s-12.34,1.64-17.84,4.92c-5.5,3.28-9.86,7.74-13.11,13.4-3.25,5.65-4.89,11.89-4.89,18.71s1.64,13.05,4.89,18.71c3.25,5.66,7.61,10.12,13.11,13.4,5.5,3.28,11.44,4.92,17.84,4.92Zm0,20.61c-10.62,0-20.32-2.56-29.12-7.69-8.8-5.13-15.75-12.1-20.85-20.93-5.1-8.83-7.66-18.52-7.66-29.1s2.56-20.32,7.66-29.09c5.1-8.77,12.05-15.72,20.85-20.82,8.8-5.1,18.5-7.64,29.12-7.64s20.35,2.54,29.15,7.64c8.8,5.1,15.75,12.05,20.85,20.82,5.1,8.77,7.64,18.47,7.64,29.09s-2.54,20.27-7.64,29.1c-5.1,8.83-12.05,15.8-20.85,20.93-8.8,5.13-18.53,7.69-29.15,7.69Zm250.73-20.61c6.45,0,12.42-1.64,17.89-4.92,5.47-3.28,9.83-7.74,13.08-13.4,3.25-5.65,4.86-11.89,4.86-18.71s-1.61-13.13-4.86-18.79c-3.25-5.66-7.64-10.12-13.13-13.37-5.5-3.25-11.44-4.86-17.84-4.86s-12.34,1.64-17.84,4.92c-5.5,3.28-9.86,7.74-13.11,13.4-3.25,5.65-4.89,11.89-4.89,18.71s1.64,13.05,4.89,18.71c3.25,5.66,7.61,10.12,13.11,13.4,5.5,3.28,11.44,4.92,17.84,4.92Zm0,20.61c-10.62,0-20.32-2.56-29.12-7.69-8.8-5.13-15.75-12.1-20.85-20.93-5.1-8.83-7.66-18.52-7.66-29.1s2.56-20.32,7.66-29.09c5.1-8.77,12.05-15.72,20.85-20.82,8.8-5.1,18.5-7.64,29.12-7.64s20.35,2.54,29.15,7.64c8.8,5.1,15.75,12.05,20.85,20.82,5.1,8.77,7.64,18.47,7.64,29.09s-2.54,20.27-7.64,29.1c-5.1,8.83-12.05,15.8-20.85,20.93-8.8,5.13-18.53,7.69-29.15,7.69Zm104.48-1.9h-21.09v-111.38h21.64l52.8,75.31v-75.31h21.09v111.38h-19.98l-54.46-77.53v77.53Zm-217.84-56.33h35.12v5.43h.01v40.43c-5.07,3.96-10.91,7.03-17.55,9.2-6.63,2.17-13.45,3.25-20.43,3.25-10.62,0-20.32-2.59-29.12-7.74-8.8-5.15-15.75-12.16-20.85-21.01-5.1-8.85-7.66-18.55-7.66-29.12s2.56-20.24,7.66-29.01c5.1-8.77,12.05-15.72,20.85-20.85,8.8-5.13,18.5-7.69,29.12-7.69,7.08,0,13.85,1.19,20.29,3.59,6.45,2.41,12.18,5.79,17.2,10.12l-12.61,16.33c-3.44-2.85-7.29-5.15-11.6-6.87-4.31-1.72-8.75-2.56-13.29-2.56-6.4,0-12.34,1.64-17.84,4.92-5.5,3.28-9.88,7.74-13.16,13.4-3.28,5.66-4.92,11.89-4.92,18.71s1.64,13.11,4.92,18.89c3.28,5.79,7.69,10.36,13.21,13.72,5.52,3.36,11.44,5.05,17.78,5.05s12.1-1.22,17.6-3.65v-15.57h-14.76v-18.96Zm-353.05,56.33h-21.48v-91.33h-32.66v-20.06h86.89v20.06h-32.74v91.33Z"/>
  <path class="cls-3" d="m984.98,165.71h2.02c1.31,0,2.12-.05,2.45-.17.32-.11.58-.3.76-.57.19-.27.28-.61.28-1.01,0-.46-.13-.82-.37-1.11-.24-.28-.59-.45-1.03-.53-.22-.03-.89-.05-1.99-.05h-2.13v3.43Zm10.3-6.59c-1.95-1.95-4.65-3.16-7.62-3.16s-5.67,1.21-7.62,3.16c-1.95,1.95-3.16,4.65-3.16,7.62s1.21,5.67,3.16,7.62c1.95,1.95,4.65,3.15,7.62,3.15s5.67-1.21,7.62-3.15c1.95-1.95,3.16-4.65,3.16-7.62s-1.21-5.68-3.16-7.62Zm-7.62-4.73c3.41,0,6.5,1.39,8.74,3.62,2.23,2.24,3.61,5.33,3.61,8.74s-1.38,6.5-3.61,8.74c-2.24,2.23-5.33,3.61-8.74,3.61s-6.5-1.38-8.74-3.61c-2.23-2.24-3.62-5.33-3.62-8.74s1.39-6.5,3.62-8.74c2.24-2.23,5.33-3.62,8.74-3.62Zm-5.41,19.11v-13.51h5.75c1.44,0,2.49.13,3.15.37.65.24,1.18.67,1.57,1.29.39.62.59,1.33.59,2.13,0,1.02-.29,1.85-.89,2.51-.59.66-1.48,1.08-2.67,1.25.59.34,1.07.72,1.45,1.13.39.41.9,1.14,1.54,2.19l1.65,2.63h-3.26l-1.95-2.95c-.7-1.05-1.19-1.71-1.44-1.98-.26-.27-.53-.46-.82-.56-.3-.1-.76-.15-1.39-.15h-.55v5.64h-2.73Z"/>
</svg>