<svg width="152" height="54" viewBox="0 0 152 54" fill="none" xmlns="http://www.w3.org/2000/svg">
<path d="M45.198 34.2758L49.527 20.0368H56.0383L48.9545 40H41.4057L34.322 20.0368H40.8691L45.198 34.2758ZM66.9671 23.364C67.6826 22.2668 68.577 21.4082 69.6503 20.7881C70.7236 20.1441 71.9162 19.8221 73.228 19.8221V26.2976H71.5465C70.02 26.2976 68.8752 26.6316 68.112 27.2994C67.3487 27.9434 66.9671 29.0882 66.9671 30.7339V40H60.8493V20.0368H66.9671V23.364ZM98.7807 20.0368L86.259 49.4807H79.6761L84.2555 39.3202L76.1342 20.0368H82.9675L87.5827 32.5227L92.1621 20.0368H98.7807ZM115.393 19.8221C117.73 19.8221 119.591 20.5853 120.974 22.1118C122.381 23.6144 123.085 25.6894 123.085 28.3369V40H117.003V29.1598C117.003 27.8241 116.657 26.7866 115.965 26.0472C115.274 25.3078 114.344 24.9381 113.175 24.9381C112.006 24.9381 111.076 25.3078 110.384 26.0472C109.693 26.7866 109.347 27.8241 109.347 29.1598V40H103.229V20.0368H109.347V22.6842C109.967 21.8017 110.802 21.1101 111.851 20.6092C112.901 20.0845 114.081 19.8221 115.393 19.8221ZM138.659 40.2862C136.704 40.2862 134.939 39.8688 133.364 39.034C131.814 38.1993 130.586 37.0067 129.679 35.4564C128.797 33.9061 128.356 32.0934 128.356 30.0184C128.356 27.9672 128.809 26.1665 129.715 24.6162C130.622 23.042 131.862 21.8375 133.436 21.0027C135.01 20.168 136.775 19.7506 138.731 19.7506C140.687 19.7506 142.452 20.168 144.026 21.0027C145.6 21.8375 146.84 23.042 147.747 24.6162C148.653 26.1665 149.106 27.9672 149.106 30.0184C149.106 32.0696 148.641 33.8822 147.711 35.4564C146.804 37.0067 145.552 38.1993 143.954 39.034C142.38 39.8688 140.615 40.2862 138.659 40.2862ZM138.659 34.9913C139.828 34.9913 140.818 34.562 141.629 33.7034C142.464 32.8447 142.881 31.6164 142.881 30.0184C142.881 28.4204 142.476 27.1921 141.665 26.3334C140.878 25.4748 139.9 25.0455 138.731 25.0455C137.538 25.0455 136.549 25.4748 135.761 26.3334C134.974 27.1682 134.581 28.3965 134.581 30.0184C134.581 31.6164 134.962 32.8447 135.726 33.7034C136.513 34.562 137.491 34.9913 138.659 34.9913Z" fill="#2B3637"/>
<path fill-rule="evenodd" clip-rule="evenodd" d="M17.6803 14.9068H9.15875L18.5867 33.867L22.916 25.4361L17.6803 14.9068ZM23.7618 23.7891L28.323 14.9068H19.3451L23.7618 23.7891ZM0 14.9068H7.49395L17.7409 35.514L14.1615 42.4844L0 14.9068Z" fill="#0068E6"/>
<path d="M28.323 14.9068H19.3292L23.7516 23.7764L28.323 14.9068Z" fill="#2F98FF"/>
</svg>
