<svg xmlns="http://www.w3.org/2000/svg" xmlns:xlink="http://www.w3.org/1999/xlink" width="443" zoomAndPan="magnify" viewBox="0 0 332.25 77.999999" height="104" preserveAspectRatio="xMidYMid meet" version="1.0"><defs><g/><clipPath id="372f726f54"><path d="M 0 19.140625 L 37.414062 19.140625 L 37.414062 56.550781 L 0 56.550781 Z M 0 19.140625 " clip-rule="nonzero"/></clipPath><clipPath id="b8629cbb9a"><path d="M 5 19.140625 L 37.414062 19.140625 L 37.414062 54 L 5 54 Z M 5 19.140625 " clip-rule="nonzero"/></clipPath><clipPath id="d28a562592"><path d="M 0 20 L 35 20 L 35 56.550781 L 0 56.550781 Z M 0 20 " clip-rule="nonzero"/></clipPath></defs><g fill="#0e1d3e" fill-opacity="1"><g transform="translate(47.975337, 46.430635)"><g><path d="M 10.84375 -2.765625 L 12.90625 -2.765625 L 12.90625 0 L 10.453125 0 C 8.421875 0 6.816406 -0.585938 5.640625 -1.765625 C 4.472656 -2.953125 3.890625 -4.570312 3.890625 -6.625 L 3.890625 -16.234375 L 0.5625 -16.234375 L 0.5625 -16.765625 L 6.421875 -22.9375 L 6.875 -22.9375 L 6.875 -18.9375 L 12.796875 -18.9375 L 12.796875 -16.234375 L 6.875 -16.234375 L 6.875 -6.734375 C 6.875 -5.453125 7.210938 -4.46875 7.890625 -3.78125 C 8.566406 -3.101562 9.550781 -2.765625 10.84375 -2.765625 Z M 10.84375 -2.765625 "/></g></g></g><g fill="#0e1d3e" fill-opacity="1"><g transform="translate(61.861197, 46.430635)"><g><path d="M 12.484375 -19.359375 C 14.734375 -19.359375 16.507812 -18.640625 17.8125 -17.203125 C 19.125 -15.765625 19.78125 -13.804688 19.78125 -11.328125 L 19.78125 0 L 16.796875 0 L 16.796875 -10.625 C 16.796875 -12.570312 16.359375 -14.054688 15.484375 -15.078125 C 14.609375 -16.109375 13.351562 -16.625 11.71875 -16.625 C 10.644531 -16.625 9.671875 -16.347656 8.796875 -15.796875 C 7.929688 -15.253906 7.25 -14.503906 6.75 -13.546875 C 6.25 -12.585938 6 -11.519531 6 -10.34375 L 6 0 L 3.015625 0 L 3.015625 -25.71875 L 6 -25.71875 L 6 -16.375 C 6.71875 -17.3125 7.632812 -18.039062 8.75 -18.5625 C 9.863281 -19.09375 11.109375 -19.359375 12.484375 -19.359375 Z M 12.484375 -19.359375 "/></g></g></g><g fill="#0e1d3e" fill-opacity="1"><g transform="translate(84.373115, 46.430635)"><g><path d="M 20.734375 -9.40625 C 20.734375 -9.21875 20.71875 -9.035156 20.6875 -8.859375 C 20.664062 -8.679688 20.65625 -8.5 20.65625 -8.3125 L 4.484375 -8.3125 C 4.722656 -6.5625 5.445312 -5.148438 6.65625 -4.078125 C 7.875 -3.015625 9.375 -2.484375 11.15625 -2.484375 C 12.46875 -2.484375 13.632812 -2.773438 14.65625 -3.359375 C 15.6875 -3.953125 16.492188 -4.757812 17.078125 -5.78125 L 20.203125 -5.78125 C 19.410156 -3.820312 18.21875 -2.296875 16.625 -1.203125 C 15.03125 -0.117188 13.207031 0.421875 11.15625 0.421875 C 9.332031 0.421875 7.6875 -0.0078125 6.21875 -0.875 C 4.757812 -1.738281 3.609375 -2.921875 2.765625 -4.421875 C 1.929688 -5.921875 1.515625 -7.601562 1.515625 -9.46875 C 1.515625 -11.34375 1.929688 -13.023438 2.765625 -14.515625 C 3.609375 -16.015625 4.757812 -17.195312 6.21875 -18.0625 C 7.6875 -18.925781 9.332031 -19.359375 11.15625 -19.359375 C 13.070312 -19.359375 14.75 -18.914062 16.1875 -18.03125 C 17.625 -17.144531 18.738281 -15.945312 19.53125 -14.4375 C 20.332031 -12.925781 20.734375 -11.25 20.734375 -9.40625 Z M 11.15625 -16.515625 C 9.445312 -16.515625 8 -16.019531 6.8125 -15.03125 C 5.632812 -14.039062 4.882812 -12.722656 4.5625 -11.078125 L 17.71875 -11.078125 C 17.414062 -12.765625 16.664062 -14.09375 15.46875 -15.0625 C 14.28125 -16.03125 12.84375 -16.515625 11.15625 -16.515625 Z M 11.15625 -16.515625 "/></g></g></g><g fill="#00c064" fill-opacity="1"><g transform="translate(106.542348, 46.430635)"><g><path d="M 24 -19.390625 C 25.300781 -19.390625 26.453125 -19.066406 27.453125 -18.421875 C 28.460938 -17.785156 29.253906 -16.90625 29.828125 -15.78125 C 30.398438 -14.65625 30.6875 -13.359375 30.6875 -11.890625 L 30.6875 0 L 25.578125 0 L 25.578125 -11.046875 C 25.578125 -13.617188 24.617188 -14.90625 22.703125 -14.90625 C 21.578125 -14.90625 20.691406 -14.492188 20.046875 -13.671875 C 19.398438 -12.859375 19.078125 -11.71875 19.078125 -10.25 L 19.078125 0 L 14.0625 0 L 14.0625 -11.046875 C 14.0625 -13.617188 13.140625 -14.90625 11.296875 -14.90625 C 10.128906 -14.90625 9.21875 -14.492188 8.5625 -13.671875 C 7.90625 -12.859375 7.578125 -11.71875 7.578125 -10.25 L 7.578125 0 L 2.453125 0 L 2.453125 -18.9375 L 6.03125 -18.9375 L 6.984375 -16.59375 C 7.660156 -17.4375 8.492188 -18.113281 9.484375 -18.625 C 10.484375 -19.132812 11.539062 -19.390625 12.65625 -19.390625 C 13.851562 -19.390625 14.929688 -19.117188 15.890625 -18.578125 C 16.847656 -18.046875 17.597656 -17.300781 18.140625 -16.34375 C 18.796875 -17.28125 19.632812 -18.019531 20.65625 -18.5625 C 21.6875 -19.113281 22.800781 -19.390625 24 -19.390625 Z M 24 -19.390625 "/></g></g></g><g fill="#00c064" fill-opacity="1"><g transform="translate(139.433596, 46.430635)"><g><path d="M 20.84375 -9.546875 C 20.84375 -9.046875 20.804688 -8.539062 20.734375 -8.03125 L 6.421875 -8.03125 C 6.628906 -6.75 7.140625 -5.757812 7.953125 -5.0625 C 8.773438 -4.375 9.804688 -4.03125 11.046875 -4.03125 C 11.929688 -4.03125 12.722656 -4.222656 13.421875 -4.609375 C 14.128906 -4.992188 14.671875 -5.523438 15.046875 -6.203125 L 20.453125 -6.203125 C 19.742188 -4.148438 18.546875 -2.515625 16.859375 -1.296875 C 15.179688 -0.078125 13.242188 0.53125 11.046875 0.53125 C 9.179688 0.53125 7.503906 0.09375 6.015625 -0.78125 C 4.523438 -1.664062 3.351562 -2.859375 2.5 -4.359375 C 1.65625 -5.867188 1.234375 -7.570312 1.234375 -9.46875 C 1.234375 -11.363281 1.65625 -13.066406 2.5 -14.578125 C 3.351562 -16.085938 4.523438 -17.28125 6.015625 -18.15625 C 7.503906 -19.03125 9.179688 -19.46875 11.046875 -19.46875 C 12.992188 -19.46875 14.703125 -19.015625 16.171875 -18.109375 C 17.640625 -17.210938 18.785156 -16.015625 19.609375 -14.515625 C 20.429688 -13.023438 20.84375 -11.367188 20.84375 -9.546875 Z M 11.046875 -15.125 C 9.898438 -15.125 8.9375 -14.804688 8.15625 -14.171875 C 7.375 -13.535156 6.84375 -12.660156 6.5625 -11.546875 L 15.71875 -11.546875 C 14.96875 -13.929688 13.410156 -15.125 11.046875 -15.125 Z M 11.046875 -15.125 "/></g></g></g><g fill="#00c064" fill-opacity="1"><g transform="translate(161.454595, 46.430635)"><g><path d="M 9.1875 0.53125 C 7.601562 0.53125 6.210938 0.25 5.015625 -0.3125 C 3.828125 -0.875 2.898438 -1.660156 2.234375 -2.671875 C 1.566406 -3.691406 1.234375 -4.882812 1.234375 -6.25 L 6.203125 -6.25 C 6.234375 -5.40625 6.539062 -4.769531 7.125 -4.34375 C 7.707031 -3.925781 8.453125 -3.71875 9.359375 -3.71875 C 10.085938 -3.71875 10.71875 -3.875 11.25 -4.1875 C 11.789062 -4.507812 12.0625 -4.984375 12.0625 -5.609375 C 12.0625 -6.265625 11.703125 -6.726562 10.984375 -7 C 10.273438 -7.269531 9.421875 -7.484375 8.421875 -7.640625 C 7.671875 -7.765625 6.890625 -7.929688 6.078125 -8.140625 C 5.273438 -8.347656 4.535156 -8.648438 3.859375 -9.046875 C 3.179688 -9.441406 2.625 -9.988281 2.1875 -10.6875 C 1.757812 -11.394531 1.546875 -12.3125 1.546875 -13.4375 C 1.546875 -14.625 1.863281 -15.671875 2.5 -16.578125 C 3.144531 -17.492188 4.035156 -18.203125 5.171875 -18.703125 C 6.304688 -19.210938 7.644531 -19.46875 9.1875 -19.46875 C 10.707031 -19.46875 12.035156 -19.203125 13.171875 -18.671875 C 14.304688 -18.148438 15.1875 -17.414062 15.8125 -16.46875 C 16.445312 -15.519531 16.765625 -14.414062 16.765625 -13.15625 L 11.890625 -13.15625 C 11.890625 -13.90625 11.640625 -14.46875 11.140625 -14.84375 C 10.640625 -15.21875 9.941406 -15.40625 9.046875 -15.40625 C 8.253906 -15.40625 7.632812 -15.234375 7.1875 -14.890625 C 6.75 -14.546875 6.53125 -14.109375 6.53125 -13.578125 C 6.53125 -12.941406 6.878906 -12.503906 7.578125 -12.265625 C 8.273438 -12.035156 9.117188 -11.84375 10.109375 -11.6875 C 10.878906 -11.539062 11.671875 -11.367188 12.484375 -11.171875 C 13.304688 -10.972656 14.066406 -10.675781 14.765625 -10.28125 C 15.460938 -9.882812 16.03125 -9.332031 16.46875 -8.625 C 16.90625 -7.925781 17.125 -7.003906 17.125 -5.859375 C 17.125 -4.566406 16.796875 -3.441406 16.140625 -2.484375 C 15.484375 -1.523438 14.554688 -0.78125 13.359375 -0.25 C 12.171875 0.269531 10.78125 0.53125 9.1875 0.53125 Z M 9.1875 0.53125 "/></g></g></g><g fill="#00c064" fill-opacity="1"><g transform="translate(179.863878, 46.430635)"><g><path d="M 9.1875 0.53125 C 7.601562 0.53125 6.210938 0.25 5.015625 -0.3125 C 3.828125 -0.875 2.898438 -1.660156 2.234375 -2.671875 C 1.566406 -3.691406 1.234375 -4.882812 1.234375 -6.25 L 6.203125 -6.25 C 6.234375 -5.40625 6.539062 -4.769531 7.125 -4.34375 C 7.707031 -3.925781 8.453125 -3.71875 9.359375 -3.71875 C 10.085938 -3.71875 10.71875 -3.875 11.25 -4.1875 C 11.789062 -4.507812 12.0625 -4.984375 12.0625 -5.609375 C 12.0625 -6.265625 11.703125 -6.726562 10.984375 -7 C 10.273438 -7.269531 9.421875 -7.484375 8.421875 -7.640625 C 7.671875 -7.765625 6.890625 -7.929688 6.078125 -8.140625 C 5.273438 -8.347656 4.535156 -8.648438 3.859375 -9.046875 C 3.179688 -9.441406 2.625 -9.988281 2.1875 -10.6875 C 1.757812 -11.394531 1.546875 -12.3125 1.546875 -13.4375 C 1.546875 -14.625 1.863281 -15.671875 2.5 -16.578125 C 3.144531 -17.492188 4.035156 -18.203125 5.171875 -18.703125 C 6.304688 -19.210938 7.644531 -19.46875 9.1875 -19.46875 C 10.707031 -19.46875 12.035156 -19.203125 13.171875 -18.671875 C 14.304688 -18.148438 15.1875 -17.414062 15.8125 -16.46875 C 16.445312 -15.519531 16.765625 -14.414062 16.765625 -13.15625 L 11.890625 -13.15625 C 11.890625 -13.90625 11.640625 -14.46875 11.140625 -14.84375 C 10.640625 -15.21875 9.941406 -15.40625 9.046875 -15.40625 C 8.253906 -15.40625 7.632812 -15.234375 7.1875 -14.890625 C 6.75 -14.546875 6.53125 -14.109375 6.53125 -13.578125 C 6.53125 -12.941406 6.878906 -12.503906 7.578125 -12.265625 C 8.273438 -12.035156 9.117188 -11.84375 10.109375 -11.6875 C 10.878906 -11.539062 11.671875 -11.367188 12.484375 -11.171875 C 13.304688 -10.972656 14.066406 -10.675781 14.765625 -10.28125 C 15.460938 -9.882812 16.03125 -9.332031 16.46875 -8.625 C 16.90625 -7.925781 17.125 -7.003906 17.125 -5.859375 C 17.125 -4.566406 16.796875 -3.441406 16.140625 -2.484375 C 15.484375 -1.523438 14.554688 -0.78125 13.359375 -0.25 C 12.171875 0.269531 10.78125 0.53125 9.1875 0.53125 Z M 9.1875 0.53125 "/></g></g></g><g fill="#00c064" fill-opacity="1"><g transform="translate(198.273162, 46.430635)"><g><path d="M 20.84375 -9.546875 C 20.84375 -9.046875 20.804688 -8.539062 20.734375 -8.03125 L 6.421875 -8.03125 C 6.628906 -6.75 7.140625 -5.757812 7.953125 -5.0625 C 8.773438 -4.375 9.804688 -4.03125 11.046875 -4.03125 C 11.929688 -4.03125 12.722656 -4.222656 13.421875 -4.609375 C 14.128906 -4.992188 14.671875 -5.523438 15.046875 -6.203125 L 20.453125 -6.203125 C 19.742188 -4.148438 18.546875 -2.515625 16.859375 -1.296875 C 15.179688 -0.078125 13.242188 0.53125 11.046875 0.53125 C 9.179688 0.53125 7.503906 0.09375 6.015625 -0.78125 C 4.523438 -1.664062 3.351562 -2.859375 2.5 -4.359375 C 1.65625 -5.867188 1.234375 -7.570312 1.234375 -9.46875 C 1.234375 -11.363281 1.65625 -13.066406 2.5 -14.578125 C 3.351562 -16.085938 4.523438 -17.28125 6.015625 -18.15625 C 7.503906 -19.03125 9.179688 -19.46875 11.046875 -19.46875 C 12.992188 -19.46875 14.703125 -19.015625 16.171875 -18.109375 C 17.640625 -17.210938 18.785156 -16.015625 19.609375 -14.515625 C 20.429688 -13.023438 20.84375 -11.367188 20.84375 -9.546875 Z M 11.046875 -15.125 C 9.898438 -15.125 8.9375 -14.804688 8.15625 -14.171875 C 7.375 -13.535156 6.84375 -12.660156 6.5625 -11.546875 L 15.71875 -11.546875 C 14.96875 -13.929688 13.410156 -15.125 11.046875 -15.125 Z M 11.046875 -15.125 "/></g></g></g><g fill="#00c064" fill-opacity="1"><g transform="translate(220.294161, 46.430635)"><g><path d="M 13.265625 -19.390625 C 15.410156 -19.390625 17.109375 -18.671875 18.359375 -17.234375 C 19.609375 -15.796875 20.234375 -13.875 20.234375 -11.46875 L 20.234375 0 L 15.125 0 L 15.125 -10.65625 C 15.125 -13.488281 14.023438 -14.90625 11.828125 -14.90625 C 10.515625 -14.90625 9.476562 -14.460938 8.71875 -13.578125 C 7.957031 -12.691406 7.578125 -11.488281 7.578125 -9.96875 L 7.578125 0 L 2.453125 0 L 2.453125 -18.9375 L 5.96875 -18.9375 L 6.984375 -16.59375 C 7.679688 -17.457031 8.578125 -18.140625 9.671875 -18.640625 C 10.773438 -19.140625 11.972656 -19.390625 13.265625 -19.390625 Z M 13.265625 -19.390625 "/></g></g></g><g fill="#00c064" fill-opacity="1"><g transform="translate(242.771014, 46.430635)"><g><path d="M 17.75 -18.9375 L 21.078125 -18.9375 L 21.078125 -2.203125 C 21.078125 -0.222656 20.6875 1.476562 19.90625 2.90625 C 19.125 4.332031 18.003906 5.429688 16.546875 6.203125 C 15.097656 6.972656 13.382812 7.359375 11.40625 7.359375 C 8.832031 7.359375 6.6875 6.738281 4.96875 5.5 C 3.25 4.257812 2.175781 2.566406 1.75 0.421875 L 6.84375 0.421875 C 7.125 1.265625 7.703125 1.898438 8.578125 2.328125 C 9.453125 2.765625 10.359375 2.984375 11.296875 2.984375 C 12.609375 2.984375 13.722656 2.585938 14.640625 1.796875 C 15.566406 1.015625 16.03125 -0.0703125 16.03125 -1.46875 L 16.03125 -2.171875 C 15.28125 -1.640625 14.445312 -1.222656 13.53125 -0.921875 C 12.625 -0.628906 11.65625 -0.484375 10.625 -0.484375 C 8.875 -0.484375 7.285156 -0.90625 5.859375 -1.75 C 4.429688 -2.59375 3.300781 -3.726562 2.46875 -5.15625 C 1.644531 -6.582031 1.234375 -8.1875 1.234375 -9.96875 C 1.234375 -11.738281 1.644531 -13.34375 2.46875 -14.78125 C 3.300781 -16.21875 4.429688 -17.359375 5.859375 -18.203125 C 7.285156 -19.046875 8.875 -19.46875 10.625 -19.46875 C 11.863281 -19.46875 13.019531 -19.253906 14.09375 -18.828125 C 15.175781 -18.410156 16.125 -17.816406 16.9375 -17.046875 Z M 11.21875 -5.046875 C 12.625 -5.046875 13.78125 -5.507812 14.6875 -6.4375 C 15.601562 -7.363281 16.0625 -8.539062 16.0625 -9.96875 C 16.0625 -11.363281 15.609375 -12.523438 14.703125 -13.453125 C 13.804688 -14.378906 12.644531 -14.84375 11.21875 -14.84375 C 9.84375 -14.84375 8.695312 -14.378906 7.78125 -13.453125 C 6.875 -12.523438 6.421875 -11.363281 6.421875 -9.96875 C 6.421875 -8.539062 6.867188 -7.363281 7.765625 -6.4375 C 8.671875 -5.507812 9.820312 -5.046875 11.21875 -5.046875 Z M 11.21875 -5.046875 "/></g></g></g><g fill="#00c064" fill-opacity="1"><g transform="translate(266.299825, 46.430635)"><g><path d="M 20.84375 -9.546875 C 20.84375 -9.046875 20.804688 -8.539062 20.734375 -8.03125 L 6.421875 -8.03125 C 6.628906 -6.75 7.140625 -5.757812 7.953125 -5.0625 C 8.773438 -4.375 9.804688 -4.03125 11.046875 -4.03125 C 11.929688 -4.03125 12.722656 -4.222656 13.421875 -4.609375 C 14.128906 -4.992188 14.671875 -5.523438 15.046875 -6.203125 L 20.453125 -6.203125 C 19.742188 -4.148438 18.546875 -2.515625 16.859375 -1.296875 C 15.179688 -0.078125 13.242188 0.53125 11.046875 0.53125 C 9.179688 0.53125 7.503906 0.09375 6.015625 -0.78125 C 4.523438 -1.664062 3.351562 -2.859375 2.5 -4.359375 C 1.65625 -5.867188 1.234375 -7.570312 1.234375 -9.46875 C 1.234375 -11.363281 1.65625 -13.066406 2.5 -14.578125 C 3.351562 -16.085938 4.523438 -17.28125 6.015625 -18.15625 C 7.503906 -19.03125 9.179688 -19.46875 11.046875 -19.46875 C 12.992188 -19.46875 14.703125 -19.015625 16.171875 -18.109375 C 17.640625 -17.210938 18.785156 -16.015625 19.609375 -14.515625 C 20.429688 -13.023438 20.84375 -11.367188 20.84375 -9.546875 Z M 11.046875 -15.125 C 9.898438 -15.125 8.9375 -14.804688 8.15625 -14.171875 C 7.375 -13.535156 6.84375 -12.660156 6.5625 -11.546875 L 15.71875 -11.546875 C 14.96875 -13.929688 13.410156 -15.125 11.046875 -15.125 Z M 11.046875 -15.125 "/></g></g></g><g fill="#00c064" fill-opacity="1"><g transform="translate(288.320824, 46.430635)"><g><path d="M 12.140625 -19.046875 L 13.828125 -19.046875 L 13.828125 -14.203125 L 11.609375 -14.203125 C 10.160156 -14.203125 9.125 -13.863281 8.5 -13.1875 C 7.882812 -12.507812 7.578125 -11.398438 7.578125 -9.859375 L 7.578125 0 L 2.453125 0 L 2.453125 -18.9375 L 5.75 -18.9375 L 6.671875 -16.625 C 7.953125 -18.238281 9.773438 -19.046875 12.140625 -19.046875 Z M 12.140625 -19.046875 "/></g></g></g><g clip-path="url(#372f726f54)"><path fill="#fcf5eb" d="M 0 19.160156 L 37.695312 19.160156 L 37.695312 56.855469 L 0 56.855469 Z M 0 19.160156 " fill-opacity="1" fill-rule="nonzero"/></g><g clip-path="url(#b8629cbb9a)"><path fill="#00bf63" d="M 22.910156 45.910156 L 26.921875 53.417969 L 30.203125 45.910156 L 30.625 45.910156 C 34.320312 45.910156 37.3125 42.910156 37.3125 39.222656 L 37.3125 25.839844 C 37.3125 22.144531 34.3125 19.152344 30.625 19.152344 L 12.347656 19.152344 C 8.65625 19.152344 5.660156 22.152344 5.660156 25.839844 L 5.660156 39.222656 C 5.660156 42.914062 8.664062 45.910156 12.347656 45.910156 Z M 22.910156 45.910156 " fill-opacity="1" fill-rule="nonzero"/></g><g clip-path="url(#d28a562592)"><path fill="#0e1d3e" d="M 26.792969 49.355469 C 30.964844 49.179688 34.289062 45.75 34.289062 41.535156 L 34.289062 28.160156 C 34.289062 23.839844 30.78125 20.335938 26.460938 20.335938 L 8.195312 20.335938 C 3.875 20.335938 0.371094 23.839844 0.371094 28.160156 L 0.371094 41.542969 C 0.371094 45.863281 3.875 49.371094 8.195312 49.371094 L 18.078125 49.371094 C 19.027344 51.148438 21.773438 56.277344 21.773438 56.277344 C 21.976562 56.660156 22.382812 56.894531 22.8125 56.871094 C 23.25 56.855469 23.636719 56.59375 23.808594 56.191406 Z M 19.753906 47.695312 C 19.558594 47.328125 19.171875 47.101562 18.75 47.101562 L 8.195312 47.101562 C 5.125 47.101562 2.640625 44.613281 2.640625 41.542969 L 2.640625 28.160156 C 2.640625 25.09375 5.125 22.605469 8.195312 22.605469 L 26.46875 22.605469 C 29.539062 22.605469 32.027344 25.09375 32.027344 28.160156 L 32.027344 41.542969 C 32.027344 44.613281 29.539062 47.101562 26.46875 47.101562 L 26.046875 47.101562 C 25.59375 47.101562 25.1875 47.363281 25.007812 47.777344 C 25.007812 47.777344 23.636719 50.921875 22.664062 53.140625 Z M 19.753906 47.695312 " fill-opacity="1" fill-rule="nonzero"/></g><path fill="#0e1d3e" d="M 7.921875 35.875 L 17.332031 35.875 C 17.957031 35.875 18.464844 35.371094 18.464844 34.742188 C 18.464844 34.117188 17.957031 33.613281 17.332031 33.613281 L 7.921875 33.613281 C 7.296875 33.613281 6.792969 34.117188 6.792969 34.742188 C 6.792969 35.363281 7.296875 35.875 7.921875 35.875 Z M 7.921875 30.273438 L 24.730469 30.273438 C 25.355469 30.273438 25.859375 29.765625 25.859375 29.140625 C 25.859375 28.515625 25.355469 28.011719 24.730469 28.011719 L 7.921875 28.011719 C 7.296875 28.011719 6.792969 28.515625 6.792969 29.140625 C 6.792969 29.761719 7.296875 30.273438 7.921875 30.273438 Z M 7.921875 30.273438 " fill-opacity="1" fill-rule="nonzero"/><g fill="#000000" fill-opacity="1"><g transform="translate(112.972902, 68.610567)"><g><path d="M 10.046875 -4.796875 C 9.75 -3.71875 9.4375 -2.53125 9.171875 -1.40625 C 8.875 -2.53125 8.5625 -3.703125 8.265625 -4.828125 L 6.96875 -9.453125 L 5.71875 -9.453125 L 4.4375 -4.828125 C 4.125 -3.703125 3.828125 -2.53125 3.53125 -1.40625 C 3.265625 -2.53125 2.953125 -3.71875 2.640625 -4.796875 L 1.359375 -9.453125 L 0.203125 -9.453125 L 2.875 0 L 4.125 0 L 5.484375 -4.828125 C 5.78125 -5.84375 6.078125 -6.953125 6.34375 -8.015625 C 6.609375 -6.953125 6.921875 -5.84375 7.21875 -4.828125 L 8.5625 0 L 9.8125 0 L 12.5 -9.453125 L 11.34375 -9.453125 Z M 10.046875 -4.796875 "/></g></g></g><g fill="#000000" fill-opacity="1"><g transform="translate(125.666627, 68.610567)"><g><path d="M 3.953125 -7.015625 C 3.03125 -7.015625 2.3125 -6.546875 1.859375 -5.90625 L 1.859375 -9.453125 L 0.796875 -9.453125 L 0.796875 0 L 1.859375 0 L 1.859375 -3.875 C 1.859375 -5.390625 2.859375 -6.0625 3.75 -6.0625 C 4.734375 -6.0625 5.3125 -5.59375 5.3125 -4.53125 L 5.3125 0 L 6.375 0 L 6.375 -4.640625 C 6.375 -6.15625 5.484375 -7.015625 3.953125 -7.015625 Z M 3.953125 -7.015625 "/></g></g></g><g fill="#000000" fill-opacity="1"><g transform="translate(132.836718, 68.610567)"><g><path d="M 6.40625 -0.859375 C 6.15625 -0.859375 6.03125 -0.984375 6.03125 -1.203125 L 6.03125 -5.015625 C 6.03125 -6.171875 5.359375 -7.015625 3.453125 -7.015625 C 1.453125 -7.015625 0.75 -6.0625 0.671875 -4.734375 L 1.734375 -4.734375 C 1.796875 -5.765625 2.28125 -6.09375 3.453125 -6.09375 C 4.625 -6.09375 5 -5.734375 5 -5.015625 C 5 -4.40625 4.609375 -4.15625 3.921875 -4.078125 L 2.9375 -3.96875 C 1.046875 -3.765625 0.40625 -2.921875 0.40625 -1.84375 C 0.40625 -0.5625 1.328125 0.15625 2.8125 0.15625 C 3.796875 0.15625 4.5625 -0.21875 5.046875 -0.9375 C 5.09375 -0.296875 5.453125 0.046875 6.203125 0.046875 C 6.40625 0.046875 6.609375 0.03125 6.78125 0 L 6.78125 -0.859375 Z M 2.875 -0.75 C 1.921875 -0.75 1.5 -1.203125 1.5 -1.875 C 1.5 -2.53125 1.84375 -2.96875 3.09375 -3.109375 L 4.09375 -3.234375 C 4.484375 -3.265625 4.78125 -3.359375 5 -3.515625 L 5 -2.703125 C 5 -1.359375 3.890625 -0.75 2.875 -0.75 Z M 2.875 -0.75 "/></g></g></g><g fill="#000000" fill-opacity="1"><g transform="translate(139.754524, 68.610567)"><g><path d="M 3.796875 -6.859375 L 2.390625 -6.859375 L 2.390625 -8.796875 L 1.328125 -8.796875 L 1.328125 -6.859375 L 0.203125 -6.859375 L 0.203125 -5.921875 L 1.328125 -5.921875 L 1.328125 -1.390625 C 1.328125 -0.34375 1.984375 0.03125 3.046875 0.03125 C 3.25 0.03125 3.53125 0.015625 3.796875 0 L 3.796875 -0.90625 L 3.171875 -0.90625 C 2.5625 -0.90625 2.390625 -1.125 2.390625 -1.484375 L 2.390625 -5.921875 L 3.796875 -5.921875 Z M 3.796875 -6.859375 "/></g></g></g><g fill="#000000" fill-opacity="1"><g transform="translate(143.883972, 68.610567)"><g><path d="M 3.21875 0.15625 C 4.90625 0.15625 5.9375 -0.578125 5.9375 -1.890625 C 5.9375 -3 5.265625 -3.578125 3.578125 -3.90625 L 2.96875 -4.03125 C 2.078125 -4.203125 1.578125 -4.4375 1.578125 -5.09375 C 1.578125 -5.71875 2.09375 -6.09375 3.015625 -6.09375 C 4.0625 -6.09375 4.6875 -5.796875 4.734375 -4.734375 L 5.796875 -4.734375 C 5.78125 -6.203125 4.84375 -7.015625 3.015625 -7.015625 C 1.453125 -7.015625 0.515625 -6.25 0.515625 -5.078125 C 0.515625 -4.015625 1.171875 -3.328125 2.65625 -3.0625 L 3.296875 -2.9375 C 4.484375 -2.703125 4.859375 -2.4375 4.859375 -1.8125 C 4.859375 -1.140625 4.375 -0.75 3.21875 -0.75 C 2 -0.75 1.5 -1.140625 1.375 -2.171875 L 0.3125 -2.171875 C 0.40625 -0.578125 1.46875 0.15625 3.21875 0.15625 Z M 3.21875 0.15625 "/></g></g></g><g fill="#000000" fill-opacity="1"><g transform="translate(150.084779, 68.610567)"><g><path d="M 9.046875 0 L 5.21875 -9.453125 L 3.96875 -9.453125 L 0.203125 0 L 1.375 0 L 2.453125 -2.75 L 6.765625 -2.75 L 7.859375 0 Z M 2.890625 -3.859375 C 3.3125 -4.90625 4.03125 -6.78125 4.578125 -8.25 C 5.15625 -6.78125 5.890625 -4.90625 6.3125 -3.875 L 6.359375 -3.765625 L 2.859375 -3.765625 Z M 2.890625 -3.859375 "/></g></g></g><g fill="#000000" fill-opacity="1"><g transform="translate(159.32623, 68.610567)"><g><path d="M 4.15625 -7.015625 C 3.140625 -7.015625 2.328125 -6.578125 1.8125 -5.796875 L 1.8125 -6.859375 L 0.796875 -6.859375 L 0.796875 2.609375 L 1.859375 2.609375 L 1.859375 -0.984375 C 2.375 -0.25 3.15625 0.15625 4.15625 0.15625 C 6.078125 0.15625 7.34375 -1.234375 7.34375 -3.421875 C 7.34375 -5.625 6.078125 -7.015625 4.15625 -7.015625 Z M 4.03125 -0.796875 C 2.703125 -0.796875 1.8125 -1.765625 1.8125 -3.421875 C 1.8125 -5.09375 2.703125 -6.0625 4.03125 -6.0625 C 5.359375 -6.0625 6.234375 -5.140625 6.234375 -3.484375 C 6.234375 -1.8125 5.359375 -0.796875 4.03125 -0.796875 Z M 4.03125 -0.796875 "/></g></g></g><g fill="#000000" fill-opacity="1"><g transform="translate(167.13366, 68.610567)"><g><path d="M 4.15625 -7.015625 C 3.140625 -7.015625 2.328125 -6.578125 1.8125 -5.796875 L 1.8125 -6.859375 L 0.796875 -6.859375 L 0.796875 2.609375 L 1.859375 2.609375 L 1.859375 -0.984375 C 2.375 -0.25 3.15625 0.15625 4.15625 0.15625 C 6.078125 0.15625 7.34375 -1.234375 7.34375 -3.421875 C 7.34375 -5.625 6.078125 -7.015625 4.15625 -7.015625 Z M 4.03125 -0.796875 C 2.703125 -0.796875 1.8125 -1.765625 1.8125 -3.421875 C 1.8125 -5.09375 2.703125 -6.0625 4.03125 -6.0625 C 5.359375 -6.0625 6.234375 -5.140625 6.234375 -3.484375 C 6.234375 -1.8125 5.359375 -0.796875 4.03125 -0.796875 Z M 4.03125 -0.796875 "/></g></g></g><g fill="#000000" fill-opacity="1"><g transform="translate(174.941091, 68.610567)"><g/></g></g><g fill="#000000" fill-opacity="1"><g transform="translate(177.463904, 68.610567)"><g><path d="M 6.421875 -4.921875 C 7.21875 -5.34375 7.671875 -6.046875 7.671875 -6.984375 C 7.671875 -8.328125 6.765625 -9.453125 4.796875 -9.453125 L 0.859375 -9.453125 L 0.859375 0 L 5 0 C 7.015625 0 8.0625 -1.0625 8.0625 -2.65625 C 8.0625 -3.59375 7.59375 -4.46875 6.421875 -4.921875 Z M 4.71875 -8.453125 C 5.984375 -8.453125 6.59375 -7.84375 6.59375 -6.953125 C 6.59375 -5.9375 5.984375 -5.328125 4.71875 -5.328125 L 1.984375 -5.328125 L 1.984375 -8.453125 Z M 1.984375 -1.015625 L 1.984375 -4.328125 L 4.921875 -4.328125 C 6.1875 -4.328125 6.953125 -3.8125 6.953125 -2.65625 C 6.953125 -1.640625 6.265625 -1.015625 4.9375 -1.015625 Z M 1.984375 -1.015625 "/></g></g></g><g fill="#000000" fill-opacity="1"><g transform="translate(185.855566, 68.610567)"><g><path d="M 5.3125 -2.96875 C 5.3125 -1.46875 4.3125 -0.796875 3.421875 -0.796875 C 2.4375 -0.796875 1.859375 -1.265625 1.859375 -2.328125 L 1.859375 -6.859375 L 0.796875 -6.859375 L 0.796875 -2.21875 C 0.796875 -0.703125 1.6875 0.15625 3.21875 0.15625 C 4.171875 0.15625 4.921875 -0.328125 5.359375 -1.015625 L 5.359375 0 L 6.375 0 L 6.375 -6.859375 L 5.3125 -6.859375 Z M 5.3125 -2.96875 "/></g></g></g><g fill="#000000" fill-opacity="1"><g transform="translate(193.025658, 68.610567)"><g><path d="M 3.21875 0.15625 C 4.90625 0.15625 5.9375 -0.578125 5.9375 -1.890625 C 5.9375 -3 5.265625 -3.578125 3.578125 -3.90625 L 2.96875 -4.03125 C 2.078125 -4.203125 1.578125 -4.4375 1.578125 -5.09375 C 1.578125 -5.71875 2.09375 -6.09375 3.015625 -6.09375 C 4.0625 -6.09375 4.6875 -5.796875 4.734375 -4.734375 L 5.796875 -4.734375 C 5.78125 -6.203125 4.84375 -7.015625 3.015625 -7.015625 C 1.453125 -7.015625 0.515625 -6.25 0.515625 -5.078125 C 0.515625 -4.015625 1.171875 -3.328125 2.65625 -3.0625 L 3.296875 -2.9375 C 4.484375 -2.703125 4.859375 -2.4375 4.859375 -1.8125 C 4.859375 -1.140625 4.375 -0.75 3.21875 -0.75 C 2 -0.75 1.5 -1.140625 1.375 -2.171875 L 0.3125 -2.171875 C 0.40625 -0.578125 1.46875 0.15625 3.21875 0.15625 Z M 3.21875 0.15625 "/></g></g></g><g fill="#000000" fill-opacity="1"><g transform="translate(199.226465, 68.610567)"><g><path d="M 1.890625 -7.78125 L 1.890625 -9.078125 L 0.75 -9.078125 L 0.75 -7.78125 Z M 1.859375 0 L 1.859375 -6.859375 L 0.796875 -6.859375 L 0.796875 0 Z M 1.859375 0 "/></g></g></g><g fill="#000000" fill-opacity="1"><g transform="translate(201.882056, 68.610567)"><g><path d="M 3.953125 -7.015625 C 3 -7.015625 2.265625 -6.515625 1.8125 -5.828125 L 1.8125 -6.859375 L 0.796875 -6.859375 L 0.796875 0 L 1.859375 0 L 1.859375 -3.875 C 1.859375 -5.390625 2.859375 -6.0625 3.75 -6.0625 C 4.734375 -6.0625 5.3125 -5.59375 5.3125 -4.53125 L 5.3125 0 L 6.375 0 L 6.375 -4.640625 C 6.375 -6.15625 5.484375 -7.015625 3.953125 -7.015625 Z M 3.953125 -7.015625 "/></g></g></g><g fill="#000000" fill-opacity="1"><g transform="translate(209.052148, 68.610567)"><g><path d="M 3.65625 0.15625 C 5.28125 0.15625 6.265625 -0.796875 6.59375 -2.078125 L 5.5 -2.078125 C 5.265625 -1.3125 4.65625 -0.8125 3.671875 -0.8125 C 2.484375 -0.8125 1.671875 -1.515625 1.5625 -3.0625 L 6.78125 -3.0625 L 6.78125 -3.421875 C 6.78125 -5.390625 5.671875 -7.015625 3.625 -7.015625 C 1.734375 -7.015625 0.46875 -5.578125 0.46875 -3.421875 C 0.46875 -1.203125 1.78125 0.15625 3.65625 0.15625 Z M 1.59375 -4.015625 C 1.765625 -5.359375 2.546875 -6.046875 3.625 -6.046875 C 4.84375 -6.046875 5.53125 -5.140625 5.625 -4.015625 Z M 1.59375 -4.015625 "/></g></g></g><g fill="#000000" fill-opacity="1"><g transform="translate(216.288629, 68.610567)"><g><path d="M 3.21875 0.15625 C 4.90625 0.15625 5.9375 -0.578125 5.9375 -1.890625 C 5.9375 -3 5.265625 -3.578125 3.578125 -3.90625 L 2.96875 -4.03125 C 2.078125 -4.203125 1.578125 -4.4375 1.578125 -5.09375 C 1.578125 -5.71875 2.09375 -6.09375 3.015625 -6.09375 C 4.0625 -6.09375 4.6875 -5.796875 4.734375 -4.734375 L 5.796875 -4.734375 C 5.78125 -6.203125 4.84375 -7.015625 3.015625 -7.015625 C 1.453125 -7.015625 0.515625 -6.25 0.515625 -5.078125 C 0.515625 -4.015625 1.171875 -3.328125 2.65625 -3.0625 L 3.296875 -2.9375 C 4.484375 -2.703125 4.859375 -2.4375 4.859375 -1.8125 C 4.859375 -1.140625 4.375 -0.75 3.21875 -0.75 C 2 -0.75 1.5 -1.140625 1.375 -2.171875 L 0.3125 -2.171875 C 0.40625 -0.578125 1.46875 0.15625 3.21875 0.15625 Z M 3.21875 0.15625 "/></g></g></g><g fill="#000000" fill-opacity="1"><g transform="translate(222.489436, 68.610567)"><g><path d="M 3.21875 0.15625 C 4.90625 0.15625 5.9375 -0.578125 5.9375 -1.890625 C 5.9375 -3 5.265625 -3.578125 3.578125 -3.90625 L 2.96875 -4.03125 C 2.078125 -4.203125 1.578125 -4.4375 1.578125 -5.09375 C 1.578125 -5.71875 2.09375 -6.09375 3.015625 -6.09375 C 4.0625 -6.09375 4.6875 -5.796875 4.734375 -4.734375 L 5.796875 -4.734375 C 5.78125 -6.203125 4.84375 -7.015625 3.015625 -7.015625 C 1.453125 -7.015625 0.515625 -6.25 0.515625 -5.078125 C 0.515625 -4.015625 1.171875 -3.328125 2.65625 -3.0625 L 3.296875 -2.9375 C 4.484375 -2.703125 4.859375 -2.4375 4.859375 -1.8125 C 4.859375 -1.140625 4.375 -0.75 3.21875 -0.75 C 2 -0.75 1.5 -1.140625 1.375 -2.171875 L 0.3125 -2.171875 C 0.40625 -0.578125 1.46875 0.15625 3.21875 0.15625 Z M 3.21875 0.15625 "/></g></g></g><g fill="#000000" fill-opacity="1"><g transform="translate(228.690243, 68.610567)"><g/></g></g><g fill="#000000" fill-opacity="1"><g transform="translate(231.213056, 68.610567)"><g><path d="M 9.046875 0 L 5.21875 -9.453125 L 3.96875 -9.453125 L 0.203125 0 L 1.375 0 L 2.453125 -2.75 L 6.765625 -2.75 L 7.859375 0 Z M 2.890625 -3.859375 C 3.3125 -4.90625 4.03125 -6.78125 4.578125 -8.25 C 5.15625 -6.78125 5.890625 -4.90625 6.3125 -3.875 L 6.359375 -3.765625 L 2.859375 -3.765625 Z M 2.890625 -3.859375 "/></g></g></g><g fill="#000000" fill-opacity="1"><g transform="translate(240.454507, 68.610567)"><g><path d="M 4.796875 -9.453125 L 0.859375 -9.453125 L 0.859375 0 L 1.984375 0 L 1.984375 -3.640625 L 4.796875 -3.640625 C 6.890625 -3.640625 7.921875 -4.84375 7.921875 -6.546875 C 7.921875 -8.25 6.890625 -9.453125 4.796875 -9.453125 Z M 1.984375 -4.65625 L 1.984375 -8.453125 L 4.796875 -8.453125 C 6.125 -8.453125 6.78125 -7.75 6.78125 -6.546875 C 6.78125 -5.359375 6.125 -4.65625 4.796875 -4.65625 Z M 1.984375 -4.65625 "/></g></g></g><g fill="#000000" fill-opacity="1"><g transform="translate(248.832899, 68.610567)"><g><path d="M 1.984375 0 L 1.984375 -9.453125 L 0.859375 -9.453125 L 0.859375 0 Z M 1.984375 0 "/></g></g></g><g fill="#000000" fill-opacity="1"><g transform="translate(251.674375, 68.610567)"><g/></g></g><g fill="#000000" fill-opacity="1"><g transform="translate(254.197188, 68.610567)"><g><path d="M 4.328125 0.21875 C 6.59375 0.21875 7.875 -0.890625 7.875 -2.5625 C 7.875 -3.9375 7.109375 -4.78125 4.921875 -5.265625 L 4.09375 -5.453125 C 2.3125 -5.84375 1.875 -6.296875 1.875 -7.203125 C 1.875 -8.09375 2.578125 -8.65625 3.9375 -8.65625 C 5.828125 -8.65625 6.40625 -7.921875 6.5 -6.703125 L 7.640625 -6.703125 C 7.59375 -8.25 6.734375 -9.671875 3.9375 -9.671875 C 1.984375 -9.671875 0.71875 -8.71875 0.71875 -7.203125 C 0.71875 -5.46875 1.984375 -4.828125 3.59375 -4.46875 L 4.421875 -4.28125 C 6.09375 -3.90625 6.71875 -3.46875 6.71875 -2.5625 C 6.71875 -1.390625 5.84375 -0.796875 4.328125 -0.796875 C 2.796875 -0.796875 1.578125 -1.375 1.546875 -3.125 L 0.40625 -3.125 C 0.421875 -0.75 2.078125 0.21875 4.328125 0.21875 Z M 4.328125 0.21875 "/></g></g></g><g fill="#000000" fill-opacity="1"><g transform="translate(262.402965, 68.610567)"><g><path d="M 3.78125 0.15625 C 5.71875 0.15625 7.109375 -1.234375 7.109375 -3.421875 C 7.109375 -5.625 5.71875 -7.015625 3.78125 -7.015625 C 1.859375 -7.015625 0.46875 -5.625 0.46875 -3.421875 C 0.46875 -1.234375 1.859375 0.15625 3.78125 0.15625 Z M 3.78125 -0.796875 C 2.453125 -0.796875 1.578125 -1.765625 1.578125 -3.421875 C 1.578125 -5.09375 2.453125 -6.0625 3.78125 -6.0625 C 5.109375 -6.0625 5.984375 -5.09375 5.984375 -3.421875 C 5.984375 -1.765625 5.109375 -0.796875 3.78125 -0.796875 Z M 3.78125 -0.796875 "/></g></g></g><g fill="#000000" fill-opacity="1"><g transform="translate(269.971392, 68.610567)"><g><path d="M 1.859375 0 L 1.859375 -9.453125 L 0.796875 -9.453125 L 0.796875 0 Z M 1.859375 0 "/></g></g></g><g fill="#000000" fill-opacity="1"><g transform="translate(272.626983, 68.610567)"><g><path d="M 5.3125 -2.96875 C 5.3125 -1.46875 4.3125 -0.796875 3.421875 -0.796875 C 2.4375 -0.796875 1.859375 -1.265625 1.859375 -2.328125 L 1.859375 -6.859375 L 0.796875 -6.859375 L 0.796875 -2.21875 C 0.796875 -0.703125 1.6875 0.15625 3.21875 0.15625 C 4.171875 0.15625 4.921875 -0.328125 5.359375 -1.015625 L 5.359375 0 L 6.375 0 L 6.375 -6.859375 L 5.3125 -6.859375 Z M 5.3125 -2.96875 "/></g></g></g><g fill="#000000" fill-opacity="1"><g transform="translate(279.797075, 68.610567)"><g><path d="M 3.796875 -6.859375 L 2.390625 -6.859375 L 2.390625 -8.796875 L 1.328125 -8.796875 L 1.328125 -6.859375 L 0.203125 -6.859375 L 0.203125 -5.921875 L 1.328125 -5.921875 L 1.328125 -1.390625 C 1.328125 -0.34375 1.984375 0.03125 3.046875 0.03125 C 3.25 0.03125 3.53125 0.015625 3.796875 0 L 3.796875 -0.90625 L 3.171875 -0.90625 C 2.5625 -0.90625 2.390625 -1.125 2.390625 -1.484375 L 2.390625 -5.921875 L 3.796875 -5.921875 Z M 3.796875 -6.859375 "/></g></g></g><g fill="#000000" fill-opacity="1"><g transform="translate(283.926523, 68.610567)"><g><path d="M 1.890625 -7.78125 L 1.890625 -9.078125 L 0.75 -9.078125 L 0.75 -7.78125 Z M 1.859375 0 L 1.859375 -6.859375 L 0.796875 -6.859375 L 0.796875 0 Z M 1.859375 0 "/></g></g></g><g fill="#000000" fill-opacity="1"><g transform="translate(286.582114, 68.610567)"><g><path d="M 3.78125 0.15625 C 5.71875 0.15625 7.109375 -1.234375 7.109375 -3.421875 C 7.109375 -5.625 5.71875 -7.015625 3.78125 -7.015625 C 1.859375 -7.015625 0.46875 -5.625 0.46875 -3.421875 C 0.46875 -1.234375 1.859375 0.15625 3.78125 0.15625 Z M 3.78125 -0.796875 C 2.453125 -0.796875 1.578125 -1.765625 1.578125 -3.421875 C 1.578125 -5.09375 2.453125 -6.0625 3.78125 -6.0625 C 5.109375 -6.0625 5.984375 -5.09375 5.984375 -3.421875 C 5.984375 -1.765625 5.109375 -0.796875 3.78125 -0.796875 Z M 3.78125 -0.796875 "/></g></g></g><g fill="#000000" fill-opacity="1"><g transform="translate(294.150541, 68.610567)"><g><path d="M 3.953125 -7.015625 C 3 -7.015625 2.265625 -6.515625 1.8125 -5.828125 L 1.8125 -6.859375 L 0.796875 -6.859375 L 0.796875 0 L 1.859375 0 L 1.859375 -3.875 C 1.859375 -5.390625 2.859375 -6.0625 3.75 -6.0625 C 4.734375 -6.0625 5.3125 -5.59375 5.3125 -4.53125 L 5.3125 0 L 6.375 0 L 6.375 -4.640625 C 6.375 -6.15625 5.484375 -7.015625 3.953125 -7.015625 Z M 3.953125 -7.015625 "/></g></g></g></svg>